<svg data-name="Layer 1" xmlns="http://www.w3.org/2000/svg" width="731.66157" height="436.37988" viewBox="0 0 731.66157 436.37988" xmlns:xlink="http://www.w3.org/1999/xlink"><path d="M277.2809,566.58242c-21.53541-7.834-40.22952-26.57443-42.601-49.36718a105.58313,105.58313,0,0,0,70.66119,16.17963c9.53107-1.23581,20.00324-3.60273,28.15931,1.48136,5.075,3.16333,8.22562,8.77995,9.671,14.58259,1.44526,5.803,1.38007,11.86072,1.30629,17.84051l.67057,1.33378C322.65213,573,298.8163,574.41643,277.2809,566.58242Z" transform="translate(-234.16922 -231.81006)" fill="#f0f0f0"/><path d="M235.14711,517.10146a90.24506,90.24506,0,0,0,44.49883,33.20826,38.86249,38.86249,0,0,0,11.95991,2.28592,22.28943,22.28943,0,0,0,11.31506-3.09551c3.23384-1.82264,6.33065-4.0615,9.95123-5.0663a13.64789,13.64789,0,0,1,11.00924,1.83764c4.06056,2.5494,6.96292,6.40578,9.67013,10.27564,3.00584,4.29674,6.05989,8.80733,10.7521,11.41587.56853.31606.04486,1.17974-.5228.86416-8.16364-4.53841-11.18634-14.1646-18.13507-20.01674-3.24241-2.73071-7.32739-4.50084-11.61242-3.61857-3.74707.77151-6.9425,3.07751-10.20088,4.95127a23.78447,23.78447,0,0,1-10.95093,3.439,35.92747,35.92747,0,0,1-12.00366-1.81766,87.554,87.554,0,0,1-24.50757-12.17349,91.8454,91.8454,0,0,1-22.11075-22.00715c-.37494-.5289.51509-1.00775.88758-.4823Z" transform="translate(-234.16922 -231.81006)" fill="#fff"/><path d="M273.74879,548.68008a13.53965,13.53965,0,0,1-16.12633,6.87949c-.62-.1948-.34638-1.16733.2744-.97227a12.53742,12.53742,0,0,0,14.98777-6.43c.2877-.58275,1.15021-.05661.86416.52281Z" transform="translate(-234.16922 -231.81006)" fill="#fff"/><path d="M301.40294,550.64024a26.09656,26.09656,0,0,0-12.0484-14.71516c-.56739-.31806-.04391-1.18184.5228-.86416a27.14437,27.14437,0,0,1,12.50633,15.33795c.19878.62009-.783.8581-.98073.24137Z" transform="translate(-234.16922 -231.81006)" fill="#fff"/><path d="M248.94086,532.87a7.66414,7.66414,0,0,0,1.26221-7.162c-.20655-.61726.77552-.85462.98072-.24137a8.58819,8.58819,0,0,1-1.37878,7.92612.522.522,0,0,1-.69348.17068.50755.50755,0,0,1-.17067-.69348Z" transform="translate(-234.16922 -231.81006)" fill="#fff"/><path d="M289.03238,461.8449c.13994.38176.27987.76352.428,1.1476a100.93226,100.93226,0,0,0,6.93983,14.82906c.20377.37034.41586.74258.62985,1.10629a106.4046,106.4046,0,0,0,25.67519,29.58826,103.33215,103.33215,0,0,0,13.0111,8.78694c6.28889,3.58315,13.39275,6.96782,17.99519,12.26338a17.72566,17.72566,0,0,1,1.35346,1.72679l-8.34165,36.41835c-.06049.07325-.11281.14881-.1734.22246l-.26657,1.4693c-.24419-.11742-.49494-.24445-.73913-.36187-.14194-.06753-.282-.14316-.42395-.21069-.094-.04758-.188-.09559-.2756-.13315-.03136-.01573-.06263-.03185-.08572-.04568-.08758-.03757-.16494-.08176-.2442-.11742q-2.10534-1.05933-4.20311-2.15192c-.00832-.0019-.00832-.0019-.01478-.01192a151.93537,151.93537,0,0,1-29.866-19.95821c-.26932-.23676-.54706-.475-.81258-.72841a98.60161,98.60161,0,0,1-11.11754-11.63256,87.17267,87.17267,0,0,1-5.17661-7.141,72.48675,72.48675,0,0,1-9.1946-20.715c-3.90461-14.64154-3.08313-30.36886,4.32693-43.36329C288.64629,462.49986,288.83427,462.17528,289.03238,461.8449Z" transform="translate(-234.16922 -231.81006)" fill="#f0f0f0"/><path d="M289.47586,462.03264A90.245,90.245,0,0,0,305.012,515.339a38.86263,38.86263,0,0,0,8.173,9.02587,22.28949,22.28949,0,0,0,10.89816,4.34086c3.6794.49172,7.5.5686,10.99576,1.94617a13.64784,13.64784,0,0,1,7.68387,8.09557c1.70722,4.48029,1.70278,9.30682,1.53442,14.02661-.18694,5.24043-.46414,10.68064,1.71181,15.58844.26364.59465-.67447.969-.93771.37522-3.78578-8.53874-.4036-18.04458-2.42838-26.90081-.9448-4.13247-3.1407-8.00526-7.09324-9.8807-3.45633-1.64-7.39607-1.72265-11.12584-2.18832a23.78461,23.78461,0,0,1-10.81419-3.8474,35.92752,35.92752,0,0,1-8.4899-8.67834,87.554,87.554,0,0,1-12.23864-24.4751,91.84545,91.84545,0,0,1-4.40437-30.88367c.01906-.648,1.018-.49451.99907.14929Z" transform="translate(-234.16922 -231.81006)" fill="#fff"/><path d="M301.28462,510.48728a13.53964,13.53964,0,0,1-17.0179-4.21628c-.37772-.52878.42625-1.14058.80447-.61109a12.5374,12.5374,0,0,0,15.83821,3.88965c.58057-.29208.95247.64731.37522.93772Z" transform="translate(-234.16922 -231.81006)" fill="#fff"/><path d="M322.18476,528.70207a26.0966,26.0966,0,0,0-.76043-19.00321c-.26154-.59556.67649-.97006.93771-.37522a27.14434,27.14434,0,0,1,.7511,19.77617c-.21462.61479-1.14184.21371-.92838-.39774Z" transform="translate(-234.16922 -231.81006)" fill="#fff"/><path d="M290.99566,482.92769a7.66408,7.66408,0,0,0,5.31979-4.95847c.20672-.61721,1.13376-.21545.92838.39774a8.58822,8.58822,0,0,1-5.873,5.49844.522.522,0,0,1-.65647-.28124.50756.50756,0,0,1,.28125-.65647Z" transform="translate(-234.16922 -231.81006)" fill="#fff"/><path d="M929.09776,565.83015c20.40916-10.42169,36.658-31.31785,36.2098-54.22926A105.583,105.583,0,0,1,897.171,536.34337c-9.6107-.05489-20.29439-1.11664-27.76369,4.93142-4.64765,3.76315-7.084,9.72445-7.80516,15.66075-.721,5.9366.08829,11.94041.89654,17.86578l-.50154,1.40609C884.85942,577.776,908.6886,576.25184,929.09776,565.83015Z" transform="translate(-234.16922 -231.81006)" fill="#f0f0f0"/><path d="M964.82992,511.54541a90.24507,90.24507,0,0,1-40.07948,38.42615,38.86258,38.86258,0,0,1-11.58823,3.73867,22.28946,22.28946,0,0,1-11.60976-1.68121c-3.43335-1.41132-6.78187-3.25255-10.49851-3.8047a13.64792,13.64792,0,0,0-10.69987,3.17694c-3.7164,3.02918-6.12273,7.21308-8.33374,11.38636-2.4549,4.63362-4.93135,9.48541-9.26735,12.65092-.52536.38355.10049,1.17631.62506.79334,7.54389-5.50744,9.36042-15.43218,15.53713-22.09407,2.88217-3.10856,6.71859-5.36737,11.07958-5.0185,3.81348.30507,7.26812,2.20081,10.73212,3.65985a23.78449,23.78449,0,0,0,11.29059,2.06681,35.92754,35.92754,0,0,0,11.68922-3.27935,87.55383,87.55383,0,0,0,22.82538-15.0936,91.84523,91.84523,0,0,0,19.238-24.55807c.30709-.571-.635-.9368-.94014-.36954Z" transform="translate(-234.16922 -231.81006)" fill="#fff"/><path d="M930.40256,547.6294a13.53964,13.53964,0,0,0,16.84965,4.84511c.59131-.26952.20027-1.20105-.39183-.93117a12.53742,12.53742,0,0,1-15.66448-4.539c-.35715-.543-1.14845.0852-.79334.62506Z" transform="translate(-234.16922 -231.81006)" fill="#fff"/><path d="M903.19905,552.9739a26.09659,26.09659,0,0,1,10.14828-16.08454c.524-.3854-.1017-1.17827-.62506-.79335a27.1444,27.1444,0,0,0-10.52618,16.75889c-.12106.63983.88256.75535,1.003.119Z" transform="translate(-234.16922 -231.81006)" fill="#fff"/><path d="M953.079,528.88983a7.66408,7.66408,0,0,1-2.133-6.95249c.1291-.638-.8747-.75281-1.003-.119a8.58826,8.58826,0,0,0,2.34259,7.69654.522.522,0,0,0,.70921.08414.50756.50756,0,0,0,.08414-.7092Z" transform="translate(-234.16922 -231.81006)" fill="#fff"/><path d="M904.56124,463.33134c-.09194.39607-.18389.79214-.28371,1.19151a100.93156,100.93156,0,0,1-5.06445,15.56964c-.1567.39258-.32143.78807-.48909,1.17532a106.40467,106.40467,0,0,1-21.84356,32.51984,103.33227,103.33227,0,0,1-11.83236,10.3196c-5.80077,4.329-12.43472,8.56119-16.35134,14.38232a17.72845,17.72845,0,0,0-1.13094,1.88006l12.75487,35.11685c.069.06526.13025.1338.19943.19946l.44515,1.42539c.22791-.14655.46114-.30344.689-.45.13256-.08446.26228-.17675.39483-.2612.08748-.05879.17486-.118.25715-.166.02919-.01946.05824-.0393.07946-.05587.08229-.048.15363-.10141.22791-.14654q1.95916-1.31007,3.90673-2.65224c.008-.00291.008-.00291.0132-.01365a151.9357,151.9357,0,0,0,27.18632-23.47793c.23818-.26807.48453-.53866.71689-.82277a98.60258,98.60258,0,0,0,9.60338-12.9109,87.1682,87.1682,0,0,0,4.25959-7.72319,72.48662,72.48662,0,0,0,6.57862-21.68811c2.07529-15.01046-.67313-30.51754-9.62425-42.5026C905.02492,463.93388,904.79847,463.63486,904.56124,463.33134Z" transform="translate(-234.16922 -231.81006)" fill="#f0f0f0"/><path d="M904.14421,463.57217a90.24508,90.24508,0,0,1-8.866,54.81175,38.86267,38.86267,0,0,1-7.00162,9.962,22.28937,22.28937,0,0,1-10.28194,5.64752c-3.59106.94026-7.3732,1.48618-10.67317,3.283a13.64793,13.64793,0,0,0-6.63051,8.97867c-1.14356,4.65616-.54589,9.44555.20135,14.10886.82967,5.17771,1.77346,10.54258.21727,15.68063-.18855.62255.78846.87872.97672.25712,2.70751-8.93933-1.81746-17.95736-.89662-26.99531.42967-4.21727,2.13288-8.33061,5.82493-10.67766,3.22853-2.0524,7.12823-2.6187,10.77248-3.5393a23.78438,23.78438,0,0,0,10.25927-5.14748,35.92751,35.92751,0,0,0,7.35879-9.65609,87.55379,87.55379,0,0,0,9.1374-25.79385,91.84528,91.84528,0,0,0,.57481-31.19085c-.09857-.64078-1.07107-.36563-.97314.271Z" transform="translate(-234.16922 -231.81006)" fill="#fff"/><path d="M898.381,513.11088a13.53964,13.53964,0,0,0,16.37059-6.27611c.30986-.57121-.56321-1.07955-.87348-.50758a12.53741,12.53741,0,0,1-15.24,5.807c-.61207-.2185-.86568.75947-.25711.97673Z" transform="translate(-234.16922 -231.81006)" fill="#fff"/><path d="M879.87823,533.75655a26.09656,26.09656,0,0,1-1.58117-18.95257c.18634-.6232-.79061-.87956-.97673-.25711a27.14439,27.14439,0,0,0,1.68545,19.71852c.28856.58375,1.15944.07174.87245-.50884Z" transform="translate(-234.16922 -231.81006)" fill="#fff"/><path d="M905.20431,484.49558a7.66406,7.66406,0,0,1-5.88893-4.267c-.281-.58712-1.15164-.07446-.87245.50884a8.5882,8.5882,0,0,0,6.50427,4.73485.522.522,0,0,0,.61692-.3598.50755.50755,0,0,0-.35981-.61692Z" transform="translate(-234.16922 -231.81006)" fill="#fff"/><path d="M871.49841,246.80994h-143.79v9.25a2.03965,2.03965,0,0,0,.46045,1.3c-.29,7.23005-.46045,16.46-.46045,26.49v247.3c0,23.18.93018,42.04,2.07032,42.04h139.6499c1.14014,0,2.06982-18.86,2.06982-42.04v-247.3c0-10.03-.16992-19.25994-.46-26.49a2.03925,2.03925,0,0,0,.46-1.3Z" transform="translate(-234.16922 -231.81006)" fill="#fff"/><path d="M869.42859,574.18994H729.77869c-1.08838,0-1.80738,0-2.46143-13.27832-.39258-7.96826-.60889-18.53808-.60889-29.76172V283.8501c0-9.69385.16382-19.11572.46119-26.53028.186-4.45166.39917-8.01757.6333-10.60009.45947-5.05567.89648-5.90967,1.97583-5.90967h139.6499c1.07935,0,1.51611.854,1.97583,5.90967.23462,2.59228.44751,6.1582.63306,10.59814l.00024.00195c.29712,7.40674.46069,16.82862.46069,26.53028V531.1499c0,11.22412-.21606,21.79395-.60864,29.76172C871.236,574.18994,870.517,574.18994,869.42859,574.18994Zm-139.08179-2H868.86047c.72364-2.73291,1.63794-17.57031,1.63794-41.04V283.8501c0-9.6753-.16308-19.06787-.459-26.44824h-.00024c-.18409-4.40821-.395-7.94141-.62647-10.50147a28.88406,28.88406,0,0,0-.56177-4.09033H730.35632a28.89649,28.89649,0,0,0-.56176,4.09033c-.2312,2.55029-.4419,6.0835-.62671,10.50147-.29615,7.38671-.45948,16.78027-.45948,26.44824V531.1499C728.70837,554.61914,729.62293,569.457,730.3468,572.18994Z" transform="translate(-234.16922 -231.81006)" fill="#e4e4e4"/><path d="M869.42859,241.80994H729.77869a2.07433,2.07433,0,0,0-2.07032,2.07v12.18a2.03965,2.03965,0,0,0,.46045,1.3,2.0795,2.0795,0,0,0,1.60987.77h139.6499a2.08023,2.08023,0,0,0,1.60986-.77,2.03925,2.03925,0,0,0,.46-1.3v-12.18A2.0739,2.0739,0,0,0,869.42859,241.80994Z" transform="translate(-234.16922 -231.81006)" fill="#cacaca"/><circle id="b800b2fc-3bcc-4a40-9972-a80335d602c8" data-name="Ellipse 90" cx="505.55903" cy="17.56535" r="2.93962" fill="#fff"/><circle id="fa63cc97-e384-451c-9b8c-3b6845b8b0f6" data-name="Ellipse 91" cx="516.71687" cy="17.56535" r="2.93962" fill="#fff"/><circle id="beaeadfc-8efd-4e6c-adaf-945ac9d4d623" data-name="Ellipse 92" cx="527.87522" cy="17.56535" r="2.93962" fill="#fff"/><path d="M858.49841,245.45H845.64832a.95609.95609,0,0,0-.94971.95.80091.80091,0,0,0,.1001.41.94344.94344,0,0,0,.84961.54h12.85009a.948.948,0,0,0,.86036-.54.91378.91378,0,0,0,.08984-.41A.94956.94956,0,0,0,858.49841,245.45Z" transform="translate(-234.16922 -231.81006)" fill="#fff"/><path d="M858.49841,249.02H845.64832a.95.95,0,0,0,0,1.9h12.85009a.95.95,0,1,0,0-1.9Z" transform="translate(-234.16922 -231.81006)" fill="#fff"/><path d="M858.49841,252.59H845.64832a.95.95,0,0,0,0,1.9h12.85009a.95.95,0,1,0,0-1.9Z" transform="translate(-234.16922 -231.81006)" fill="#fff"/><path d="M813.49841,284.83H787.05847a5.002,5.002,0,0,0-5,5v22.9a5.0084,5.0084,0,0,0,5,5h26.43994a5.0147,5.0147,0,0,0,5-5v-22.9A5.00824,5.00824,0,0,0,813.49841,284.83Z" transform="translate(-234.16922 -231.81006)" fill="#00b0ff"/><path d="M846.34851,332.68994h-92.1499a2.27,2.27,0,1,0,0,4.54h92.1499a2.27,2.27,0,1,0,0-4.54Z" transform="translate(-234.16922 -231.81006)" fill="#e4e4e4"/><path d="M789.19861,343.33h-35a2.27,2.27,0,1,0,0,4.54h35a2.27,2.27,0,1,0,0-4.54Z" transform="translate(-234.16922 -231.81006)" fill="#e4e4e4"/><path d="M813.49841,383.83H787.05847a5.002,5.002,0,0,0-5,5v22.9a5.0084,5.0084,0,0,0,5,5h26.43994a5.0147,5.0147,0,0,0,5-5v-22.9A5.00824,5.00824,0,0,0,813.49841,383.83Z" transform="translate(-234.16922 -231.81006)" fill="#00b0ff"/><path d="M846.34851,431.68994h-92.1499a2.27,2.27,0,1,0,0,4.54h92.1499a2.27,2.27,0,1,0,0-4.54Z" transform="translate(-234.16922 -231.81006)" fill="#e4e4e4"/><path d="M789.19861,442.33h-35a2.27,2.27,0,1,0,0,4.54h35a2.27,2.27,0,1,0,0-4.54Z" transform="translate(-234.16922 -231.81006)" fill="#e4e4e4"/><path d="M813.49841,482.83H787.05847a5.002,5.002,0,0,0-5,5v22.9a5.0084,5.0084,0,0,0,5,5h26.43994a5.0147,5.0147,0,0,0,5-5v-22.9A5.00824,5.00824,0,0,0,813.49841,482.83Z" transform="translate(-234.16922 -231.81006)" fill="#00b0ff"/><path d="M846.34851,530.68994h-92.1499a2.27,2.27,0,1,0,0,4.54h92.1499a2.27,2.27,0,1,0,0-4.54Z" transform="translate(-234.16922 -231.81006)" fill="#e4e4e4"/><path d="M789.19861,541.33h-35a2.27,2.27,0,1,0,0,4.54h35a2.27,2.27,0,1,0,0-4.54Z" transform="translate(-234.16922 -231.81006)" fill="#e4e4e4"/><path d="M688.49841,234.87994a2.0739,2.0739,0,0,0-2.06982-2.07H316.77869a2.07433,2.07433,0,0,0-2.07032,2.07v12.18a2.01687,2.01687,0,0,0,.53028,1.37c-.33008,8.27-.53028,19.17-.53028,31.11v274.91c0,25.78.93018,46.74,2.07032,46.74h369.6499c1.14014,0,2.06982-20.96,2.06982-46.74v-274.91c0-11.94-.1997-22.84-.52978-31.11a2.01645,2.01645,0,0,0,.52978-1.37Z" transform="translate(-234.16922 -231.81006)" fill="#fff"/><path d="M686.42859,602.18994H316.77869c-1.13,0-1.81214,0-2.46179-14.6582-.39246-8.855-.60853-20.60352-.60853-33.082V279.54c0-11.50733.1886-22.56983.53113-31.1499.65735-16.58008,1.406-16.58008,2.53919-16.58008h369.6499c1.13306,0,1.88184.00293,2.53931,16.58008h0c.342,8.57226.53051,19.63476.53051,31.1499V554.44971c0,12.479-.21606,24.22754-.60839,33.082C688.2406,602.18994,687.55847,602.18994,686.42859,602.18994Zm-369.06616-2H685.84485c.81811-3.13525,1.65356-20.74023,1.65356-45.74023V279.54c0-11.48926-.188-22.52393-.529-31.06983v-.00048c-.4165-10.50342-.90283-13.69971-1.13525-14.65967H317.37329c-.23254.96-.71887,4.15625-1.1355,14.65967-.34143,8.55468-.52942,19.58886-.52942,31.07031V554.44971C315.70837,579.44971,316.544,597.0542,317.36243,600.18994Z" transform="translate(-234.16922 -231.81006)" fill="#e4e4e4"/><path d="M686.42859,232.80994H316.77869a2.07433,2.07433,0,0,0-2.07032,2.07v12.18a2.01687,2.01687,0,0,0,.53028,1.37,2.05118,2.05118,0,0,0,1.54.7h369.6499a2.0512,2.0512,0,0,0,1.54-.7,2.01645,2.01645,0,0,0,.52978-1.37v-12.18A2.0739,2.0739,0,0,0,686.42859,232.80994Z" transform="translate(-234.16922 -231.81006)" fill="#cacaca"/><circle id="b7005a6f-2f7f-4001-b097-d8b6c117468f" data-name="Ellipse 90" cx="92.55903" cy="8.56535" r="2.93962" fill="#fff"/><circle id="a0adf4f5-8105-4330-a35a-c3adb8f4e7bc" data-name="Ellipse 91" cx="103.71687" cy="8.56535" r="2.93962" fill="#fff"/><circle id="a64b73a5-7207-44c1-bcaf-f99ab7b9c6dc" data-name="Ellipse 92" cx="114.87522" cy="8.56535" r="2.93962" fill="#fff"/><path d="M675.49841,236.45H662.64832a.95.95,0,0,0,0,1.9h12.85009a.95.95,0,1,0,0-1.9Z" transform="translate(-234.16922 -231.81006)" fill="#fff"/><path d="M675.49841,240.02H662.64832a.95.95,0,0,0,0,1.9h12.85009a.95.95,0,1,0,0-1.9Z" transform="translate(-234.16922 -231.81006)" fill="#fff"/><path d="M675.49841,243.59H662.64832a.95.95,0,0,0,0,1.9h12.85009a.95.95,0,1,0,0-1.9Z" transform="translate(-234.16922 -231.81006)" fill="#fff"/><path d="M436.25867,293.83H392.99841a8.18973,8.18973,0,0,0-8.17968,8.18v37.47a8.18973,8.18973,0,0,0,8.17968,8.18h43.26026a8.18974,8.18974,0,0,0,8.17969-8.18V302.01A8.18974,8.18974,0,0,0,436.25867,293.83Z" transform="translate(-234.16922 -231.81006)" fill="#00b0ff"/><path d="M614.68836,308.32H463.90857a3.715,3.715,0,0,0,0,7.43H614.68836a3.715,3.715,0,0,0,0-7.43Z" transform="translate(-234.16922 -231.81006)" fill="#e4e4e4"/><path d="M521.17859,325.72992h-57.27a3.715,3.715,0,0,0,0,7.43h57.27a3.715,3.715,0,0,0,0-7.43Z" transform="translate(-234.16922 -231.81006)" fill="#e4e4e4"/><path d="M436.25867,393.83H392.99841a8.18973,8.18973,0,0,0-8.17968,8.18v37.47a8.18973,8.18973,0,0,0,8.17968,8.18h43.26026a8.18974,8.18974,0,0,0,8.17969-8.18V402.01A8.18974,8.18974,0,0,0,436.25867,393.83Z" transform="translate(-234.16922 -231.81006)" fill="#00b0ff"/><path d="M614.68836,408.32H463.90857a3.715,3.715,0,0,0,0,7.43H614.68836a3.715,3.715,0,0,0,0-7.43Z" transform="translate(-234.16922 -231.81006)" fill="#e4e4e4"/><path d="M521.17859,425.72992h-57.27a3.715,3.715,0,0,0,0,7.43h57.27a3.715,3.715,0,0,0,0-7.43Z" transform="translate(-234.16922 -231.81006)" fill="#e4e4e4"/><path d="M436.25867,493.83H392.99841a8.18973,8.18973,0,0,0-8.17968,8.18v37.47a8.18973,8.18973,0,0,0,8.17968,8.18h43.26026a8.18974,8.18974,0,0,0,8.17969-8.18V502.01A8.18974,8.18974,0,0,0,436.25867,493.83Z" transform="translate(-234.16922 -231.81006)" fill="#00b0ff"/><path d="M614.68836,508.32H463.90857a3.715,3.715,0,0,0,0,7.43H614.68836a3.715,3.715,0,0,0,0-7.43Z" transform="translate(-234.16922 -231.81006)" fill="#e4e4e4"/><path d="M521.17859,525.72992h-57.27a3.715,3.715,0,0,0,0,7.43h57.27a3.715,3.715,0,0,0,0-7.43Z" transform="translate(-234.16922 -231.81006)" fill="#e4e4e4"/><path d="M752.43145,667.18994H504.78266c-1.14175,0-2.07052-17.54946-2.07052-39.12333v-230.134c0-21.57387.92877-39.12334,2.07052-39.12334H752.43145c1.14175,0,2.07052,17.54947,2.07052,39.12334v230.134C754.502,649.64048,753.5732,667.18994,752.43145,667.18994Z" transform="translate(-234.16922 -231.81006)" fill="#fff"/><path d="M752.43152,668.18994H504.78259c-1.0476,0-1.80468,0-2.46191-12.41846-.39258-7.415-.60864-17.2539-.60864-27.70507V397.93262c0-10.45069.21606-20.29.60864-27.70459.65723-12.41895,1.41431-12.41895,2.46191-12.41895H752.43152c1.04761,0,1.80469,0,2.46191,12.41895.39258,7.41455.60865,17.2539.60865,27.70459V628.06641c0,10.45117-.21607,20.29-.60865,27.70507C754.23621,668.18994,753.47913,668.18994,752.43152,668.18994Zm-247.09546-2h246.542c.71778-2.59082,1.624-16.394,1.624-38.12353V397.93262c0-21.7295-.90625-35.53272-1.624-38.12354h-246.542c-.71777,2.59082-1.624,16.394-1.624,38.12354V628.06641C503.712,649.7959,504.61829,663.59912,505.33606,666.18994Z" transform="translate(-234.16922 -231.81006)" fill="#e4e4e4"/><path d="M752.43145,375.12966H504.78266a2.07278,2.07278,0,0,1-2.07052-2.07051V360.87979a2.07279,2.07279,0,0,1,2.07052-2.07052H752.43145a2.07279,2.07279,0,0,1,2.07052,2.07052v12.17936A2.07278,2.07278,0,0,1,752.43145,375.12966Z" transform="translate(-234.16922 -231.81006)" fill="#cacaca"/><circle id="a9432236-99f6-4733-9920-e312ad95354d" data-name="Ellipse 90" cx="280.55903" cy="134.56535" r="2.93962" fill="#fff"/><circle id="fc8d1cb9-e477-4d66-a241-a00170356ca4" data-name="Ellipse 91" cx="291.71687" cy="134.56535" r="2.93962" fill="#fff"/><circle id="bc1189a4-69b8-41a6-80e2-1e52c3b8abfb" data-name="Ellipse 92" cx="302.87522" cy="134.56535" r="2.93962" fill="#fff"/><path d="M741.49915,364.35211H728.65048a.95175.95175,0,0,1,0-1.90351h12.84867a.95176.95176,0,0,1,0,1.90351Z" transform="translate(-234.16922 -231.81006)" fill="#fff"/><path d="M741.49915,367.92118H728.65048a.95175.95175,0,0,1,0-1.9035h12.84867a.95175.95175,0,1,1,0,1.9035Z" transform="translate(-234.16922 -231.81006)" fill="#fff"/><path d="M741.49915,371.49026H728.65048a.95175.95175,0,0,1,0-1.90351h12.84867a.95176.95176,0,0,1,0,1.90351Z" transform="translate(-234.16922 -231.81006)" fill="#fff"/><path d="M580.88245,450.72656H549.28922a5.98137,5.98137,0,0,1-5.97452-5.97452V417.38882a5.98137,5.98137,0,0,1,5.97452-5.97453h31.59323a5.98138,5.98138,0,0,1,5.97453,5.97453V444.752A5.98137,5.98137,0,0,1,580.88245,450.72656Z" transform="translate(-234.16922 -231.81006)" fill="#00b0ff"/><path d="M711.187,427.42591H601.07653a2.71246,2.71246,0,0,1,0-5.42492H711.187a2.71246,2.71246,0,0,1,0,5.42492Z" transform="translate(-234.16922 -231.81006)" fill="#e4e4e4"/><path d="M642.89822,440.13986H601.07653a2.71245,2.71245,0,1,1,0-5.42491h41.82169a2.71246,2.71246,0,1,1,0,5.42491Z" transform="translate(-234.16922 -231.81006)" fill="#e4e4e4"/><path d="M580.88245,531.72656H549.28922a5.98137,5.98137,0,0,1-5.97452-5.97452V498.38882a5.98137,5.98137,0,0,1,5.97452-5.97453h31.59323a5.98138,5.98138,0,0,1,5.97453,5.97453V525.752A5.98137,5.98137,0,0,1,580.88245,531.72656Z" transform="translate(-234.16922 -231.81006)" fill="#00b0ff"/><path d="M711.187,508.42591H601.07653a2.71246,2.71246,0,0,1,0-5.42492H711.187a2.71246,2.71246,0,0,1,0,5.42492Z" transform="translate(-234.16922 -231.81006)" fill="#e4e4e4"/><path d="M642.89822,521.13986H601.07653a2.71245,2.71245,0,1,1,0-5.42491h41.82169a2.71246,2.71246,0,1,1,0,5.42491Z" transform="translate(-234.16922 -231.81006)" fill="#e4e4e4"/><path d="M580.88245,612.72656H549.28922a5.98137,5.98137,0,0,1-5.97452-5.97452V579.38882a5.98137,5.98137,0,0,1,5.97452-5.97453h31.59323a5.98138,5.98138,0,0,1,5.97453,5.97453V606.752A5.98137,5.98137,0,0,1,580.88245,612.72656Z" transform="translate(-234.16922 -231.81006)" fill="#00b0ff"/><path d="M711.187,589.42591H601.07653a2.71246,2.71246,0,1,1,0-5.42492H711.187a2.71246,2.71246,0,1,1,0,5.42492Z" transform="translate(-234.16922 -231.81006)" fill="#e4e4e4"/><path d="M642.89822,602.13986H601.07653a2.71245,2.71245,0,1,1,0-5.42491h41.82169a2.71246,2.71246,0,1,1,0,5.42491Z" transform="translate(-234.16922 -231.81006)" fill="#e4e4e4"/></svg>